<?xml version="1.0" encoding="UTF-8" standalone="no"?>
<!DOCTYPE svg PUBLIC "-//W3C//DTD SVG 1.1//EN" "http://www.w3.org/Graphics/SVG/1.1/DTD/svg11.dtd">
<svg version="1.1" xmlns="http://www.w3.org/2000/svg" xmlns:xlink="http://www.w3.org/1999/xlink" preserveAspectRatio="xMidYMid meet" viewBox="0 0 64 64" width="64" height="64"><defs><path d="M60.1 0C62.25 0 64 1.75 64 3.9C64 15.92 64 47.95 64 59.94C64 62.18 62.18 64 59.94 64C47.95 64 16.05 64 4.06 64C1.82 64 0 62.18 0 59.94C0 47.95 0 16.05 0 4.06C0 1.82 1.82 0 4.06 0C16.05 0 48.08 0 60.1 0Z" id="b39jw0cKlI"></path><path d="M49.6 10.16L53.84 14.4L14.24 54L10 49.76L49.6 10.16Z" id="a2tG0kgpn4"></path><path d="M52.38 15.71C53.42 15.56 54.07 15.47 54.33 15.44C56.17 15.18 57.84 14.18 58.93 12.68C59.44 11.99 58.34 13.5 58.62 13.11C60.24 10.88 59.98 7.79 57.99 5.86C57.3 5.19 58.51 6.37 57.78 5.66C55.9 3.84 52.98 3.66 50.89 5.24C50.41 5.6 51.42 4.83 50.65 5.42C49.27 6.46 48.43 8.05 48.33 9.77C48.31 10.1 48.3 10.32 48.26 11.14C48.24 11.34 48.28 11.55 48.36 11.74C48.58 12.27 48.53 12.14 48.6 12.32C49.15 13.64 50.18 14.7 51.48 15.29C51.6 15.35 51.9 15.49 52.38 15.71Z" id="aS5EdhDWc"></path><path d="M58 10C58 12.21 56.21 14 54 14C51.79 14 50 12.21 50 10C50 7.79 51.79 6 54 6C56.21 6 58 7.79 58 10Z" id="b1lOqgE16w"></path><path d="M14 54.17C14 55.71 14 56.67 14 57.05C14 58.89 12.75 60.49 10.97 60.93C9.98 61.18 8.18 61.63 6.72 61.99C6.52 62.04 6.38 61.79 6.53 61.65C7.22 60.95 8.82 59.35 9.52 58.65C9.79 58.39 9.79 57.96 9.52 57.7C8.82 56.99 7.18 55.35 6.48 54.65C6.21 54.39 5.79 54.39 5.52 54.65C4.82 55.35 3.3 56.87 2.63 57.55C2.45 57.72 2.16 57.55 2.22 57.31C2.57 55.88 2.87 54.68 3.09 53.81C3.63 51.65 5.52 50.11 7.75 50.02C8.05 50.01 8.8 49.97 10 49.92C10 49.92 10 49.92 10 49.92C11.9 50.63 13.37 52.17 13.98 54.1C13.98 54.11 13.99 54.14 14 54.17Z" id="b3DyygTQmU"></path><path d="M22 53.77L23 50.17L23 29.5L25 29.5L25.06 50.03L26 53.77L25 57.5L23 57.5L22 53.77Z" id="ajR0GCqxu"></path><path d="M24.68 4C26.51 4 28 5.49 28 7.32C28 11.86 28 23.28 28 28.1C28 29.15 27.15 30 26.1 30C24.88 30 23.12 30 21.9 30C20.85 30 20 29.15 20 28.1C20 23.28 20 11.73 20 7.17C20 5.42 21.42 4 23.17 4C24.13 4 23.74 4 24.68 4Z" id="aGPdbvp58"></path><path d="M22 8C22.55 8 23 8.45 23 9C23 12.4 23 21.6 23 25C23 25.55 22.55 26 22 26C21.8 26 22.2 26 22 26C21.45 26 21 25.55 21 25C21 21.6 21 12.4 21 9C21 8.45 21.45 8 22 8C22.2 8 21.8 8 22 8Z" id="eajuVyYw1"></path><path d="M26 8C26.55 8 27 8.45 27 9C27 12.4 27 21.6 27 25C27 25.55 26.55 26 26 26C25.8 26 26.2 26 26 26C25.45 26 25 25.55 25 25C25 21.6 25 12.4 25 9C25 8.45 25.45 8 26 8C26.2 8 25.8 8 26 8Z" id="aNF2fhCZT"></path></defs><g><g><g><use xlink:href="#b39jw0cKlI" opacity="1" fill="#e4e4e4" fill-opacity="1"></use></g><g><use xlink:href="#a2tG0kgpn4" opacity="1" fill="#adadad" fill-opacity="1"></use><g><use xlink:href="#a2tG0kgpn4" opacity="1" fill-opacity="0" stroke="#5d5d5d" stroke-width="0.5" stroke-opacity="1"></use></g></g><g><use xlink:href="#aS5EdhDWc" opacity="1" fill="#adadad" fill-opacity="1"></use><g><use xlink:href="#aS5EdhDWc" opacity="1" fill-opacity="0" stroke="#5d5d5d" stroke-width="0.5" stroke-opacity="1"></use></g></g><g><use xlink:href="#b1lOqgE16w" opacity="1" fill="#e4e4e4" fill-opacity="1"></use><g><use xlink:href="#b1lOqgE16w" opacity="1" fill-opacity="0" stroke="#5d5d5d" stroke-width="0.5" stroke-opacity="1"></use></g></g><g><use xlink:href="#b3DyygTQmU" opacity="1" fill="#adadad" fill-opacity="1"></use><g><use xlink:href="#b3DyygTQmU" opacity="1" fill-opacity="0" stroke="#5d5d5d" stroke-width="0.5" stroke-opacity="1"></use></g></g><g><use xlink:href="#ajR0GCqxu" opacity="1" fill="#383838" fill-opacity="1"></use></g><g><use xlink:href="#aGPdbvp58" opacity="1" fill="#4b8cc0" fill-opacity="0.5"></use><g><use xlink:href="#aGPdbvp58" opacity="1" fill-opacity="0" stroke="#5d5d5d" stroke-width="0.5" stroke-opacity="1"></use></g></g><g><use xlink:href="#eajuVyYw1" opacity="1" fill="#939393" fill-opacity="0.5"></use></g><g><use xlink:href="#aNF2fhCZT" opacity="1" fill="#939393" fill-opacity="0.5"></use></g></g></g></svg>